<svg width="8" height="11" viewBox="0 0 8 11" fill="none" xmlns="http://www.w3.org/2000/svg">
<path d="M3.58741 2.43342L1.79188 4.22952L1.79187 4.22953C1.71443 4.30696 1.60941 4.35047 1.49991 4.35047C1.3904 4.35047 1.28538 4.30696 1.20795 4.22953C1.13051 4.1521 1.08701 4.04708 1.08701 3.93757C1.08701 3.88335 1.09769 3.82966 1.11844 3.77956C1.13919 3.72947 1.1696 3.68395 1.20795 3.64561L1.2785 3.71617L1.20795 3.64561L3.70786 1.1457C3.70788 1.14568 3.7079 1.14566 3.70792 1.14564L3.58741 2.43342ZM3.58741 2.43342V9.56257C3.58741 9.67197 3.63087 9.77689 3.70823 9.85425C3.78558 9.93161 3.8905 9.97507 3.99991 9.97507C4.10931 9.97507 4.21423 9.93161 4.29159 9.85425C4.36895 9.77689 4.41241 9.67197 4.41241 9.56257V2.43342L6.20793 4.22952L6.20795 4.22953C6.28538 4.30696 6.3904 4.35047 6.49991 4.35047C6.60941 4.35047 6.71443 4.30696 6.79187 4.22953C6.8693 4.1521 6.9128 4.04708 6.9128 3.93757C6.9128 3.82806 6.8693 3.72304 6.79187 3.64561L4.29196 1.1457C4.29194 1.14568 4.29192 1.14566 4.2919 1.14564L3.58741 2.43342Z" fill="#21CE66" stroke="#21CE66" stroke-width="0.2"/>
</svg>
