<svg width="10" height="11" viewBox="0 0 10 11" fill="none" xmlns="http://www.w3.org/2000/svg">
<g clip-path="url(#clip0_75_396)">
<path d="M5.41308 8.56658L7.20861 6.77048L7.20862 6.77047C7.28605 6.69304 7.39108 6.64953 7.50058 6.64953C7.61009 6.64953 7.71511 6.69304 7.79254 6.77047C7.86998 6.8479 7.91348 6.95292 7.91348 7.06243C7.91348 7.11665 7.9028 7.17034 7.88205 7.22044C7.8613 7.27053 7.83088 7.31605 7.79254 7.35439L5.29263 9.8543L5.29254 9.85439L5.22183 9.78368C5.1928 9.81278 5.15832 9.83587 5.12035 9.85163C5.08239 9.86738 5.04169 9.87549 5.00058 9.87549C4.95948 9.87549 4.91878 9.86738 4.88081 9.85163C4.84285 9.83587 4.80836 9.81278 4.77933 9.78368L5.41308 8.56658ZM5.41308 8.56658L5.41308 1.43743C5.41308 1.32803 5.36962 1.22311 5.29226 1.14575C5.2149 1.06839 5.10998 1.02493 5.00058 1.02493C4.89118 1.02493 4.78626 1.06839 4.7089 1.14575C4.63154 1.22311 4.58808 1.32803 4.58808 1.43743L4.58808 8.56658H5.41308Z" fill="#F60707" stroke="#D01C1C" stroke-width="0.2"/>
</g>
<defs>
<clipPath id="clip0_75_396">
<rect width="10" height="10" fill="white" transform="translate(10 10.5) rotate(-180)"/>
</clipPath>
</defs>
</svg>
