<svg width="20" height="23" viewBox="0 0 20 23" fill="none" xmlns="http://www.w3.org/2000/svg">
<path fill-rule="evenodd" clip-rule="evenodd" d="M6.23853 20.4608H13.195C15.7504 20.4608 17.7107 19.4106 17.1539 15.1841L16.5055 9.45617C16.1623 7.34725 14.9799 6.54013 13.9426 6.54013H5.4605C4.40786 6.54013 3.29421 7.408 2.89757 9.45617L2.24921 15.1841C1.77629 18.9333 3.68323 20.4608 6.23853 20.4608Z" stroke="#A5A2B8" stroke-width="1.5" stroke-linecap="round" stroke-linejoin="round"/>
<path d="M6.12398 6.33183C6.12398 4.06948 7.73589 2.23548 9.72428 2.23548V2.23548C10.6818 2.23086 11.6015 2.6604 12.28 3.42912C12.9584 4.19783 13.3399 5.24239 13.3398 6.33183V6.33183" stroke="#A5A2B8" stroke-width="1.5" stroke-linecap="round" stroke-linejoin="round"/>
<path d="M7.25286 10.6018H7.291" stroke="#A5A2B8" stroke-width="1.5" stroke-linecap="round" stroke-linejoin="round"/>
<path d="M12.1117 10.6018H12.1499" stroke="#A5A2B8" stroke-width="1.5" stroke-linecap="round" stroke-linejoin="round"/>
</svg>
