<svg width="20" height="24" viewBox="0 0 20 24" fill="none" xmlns="http://www.w3.org/2000/svg">
<path d="M7.63118 20.0544V17.1466C7.63116 16.4071 8.16109 15.8061 8.81767 15.8011H11.2227C11.8824 15.8011 12.4173 16.4035 12.4173 17.1466V17.1466V20.0634C12.4171 20.6913 12.862 21.2045 13.4194 21.2192H15.0227C16.6211 21.2192 17.9168 19.7597 17.9168 17.9594V17.9594V9.68772C17.9083 8.97944 17.6131 8.31434 17.1151 7.88168L11.6316 2.90605C10.6709 2.0397 9.30533 2.0397 8.34468 2.90605L2.88518 7.89071C2.38538 8.32161 2.08965 8.98782 2.0835 9.69675V17.9594C2.0835 19.7597 3.37923 21.2192 4.97759 21.2192H6.58096C7.15212 21.2192 7.61514 20.6977 7.61514 20.0544V20.0544" stroke="#352E5B" stroke-width="1.5" stroke-linecap="round" stroke-linejoin="round"/>
</svg>
