<svg width="20" height="24" viewBox="0 0 20 24" fill="none" xmlns="http://www.w3.org/2000/svg">
<path fill-rule="evenodd" clip-rule="evenodd" d="M17.3387 8.16605L16.82 7.14196C16.3812 6.27543 15.4087 5.9765 14.6461 6.4737V6.4737C14.283 6.71702 13.8499 6.78606 13.4421 6.66558C13.0342 6.5451 12.6853 6.24501 12.4722 5.83148C12.3351 5.56863 12.2614 5.26925 12.2586 4.96361V4.96361C12.271 4.47359 12.1085 3.99874 11.8082 3.64723C11.5078 3.29572 11.0952 3.09748 10.6644 3.09769H9.61938C9.19727 3.09768 8.79256 3.28906 8.4948 3.62947C8.19704 3.96989 8.03078 4.43127 8.0328 4.91154V4.91154C8.02029 5.90311 7.3102 6.69945 6.4386 6.69935C6.16997 6.69617 5.90684 6.61235 5.67583 6.45634V6.45634C4.91318 5.95914 3.94072 6.25807 3.50191 7.1246L2.94509 8.16605C2.5068 9.0315 2.76596 10.1372 3.5248 10.6395V10.6395C4.01805 10.9635 4.32191 11.5623 4.32191 12.2103C4.32191 12.8584 4.01805 13.4572 3.5248 13.7812V13.7812C2.76693 14.28 2.50749 15.3831 2.94509 16.2459V16.2459L3.4714 17.2787C3.677 17.7008 4.02197 18.0123 4.42996 18.1442C4.83795 18.2761 5.27533 18.2176 5.64531 17.9817V17.9817C6.00903 17.7402 6.44245 17.674 6.84925 17.7979C7.25604 17.9217 7.60249 18.2254 7.8116 18.6412C7.94871 18.9041 8.02239 19.2035 8.02518 19.5091V19.5091C8.02518 20.5109 8.73893 21.323 9.61938 21.323H10.6644C11.5419 21.323 12.2544 20.5162 12.2586 19.5178V19.5178C12.2565 19.036 12.4239 18.5733 12.7233 18.2326C13.0227 17.892 13.4294 17.7016 13.8528 17.7039C14.1208 17.7121 14.3828 17.7956 14.6156 17.9469V17.9469C15.3762 18.4456 16.3481 18.1507 16.7895 17.2874V17.2874L17.3387 16.2459C17.5513 15.8308 17.6096 15.3363 17.5008 14.8721C17.392 14.4078 17.125 14.0121 16.759 13.7725V13.7725C16.3929 13.5329 16.1259 13.1372 16.0171 12.6729C15.9083 12.2087 15.9667 11.7142 16.1793 11.2991C16.3175 11.0245 16.5176 10.7968 16.759 10.6395V10.6395C17.5133 10.1375 17.7718 9.03823 17.3387 8.17473V8.17473V8.16605Z" stroke="#A5A2B8" stroke-width="1.5" stroke-linecap="round" stroke-linejoin="round"/>
<ellipse cx="10.1455" cy="12.2103" rx="2.1968" ry="2.49947" stroke="#A5A2B8" stroke-width="1.5" stroke-linecap="round" stroke-linejoin="round"/>
</svg>
