<svg width="20" height="24" viewBox="0 0 20 24" fill="none" xmlns="http://www.w3.org/2000/svg">
<path d="M14.6621 10.8717C15.9974 10.8717 17.0806 9.64014 17.0806 8.12089C17.0806 6.60164 15.9974 5.37007 14.6621 5.37007" stroke="#A5A2B8" stroke-width="1.5" stroke-linecap="round" stroke-linejoin="round"/>
<path d="M15.7739 13.8611C16.1727 13.8924 16.5691 13.9567 16.9595 14.0567C17.5018 14.1775 18.1542 14.4304 18.3864 14.984C18.5346 15.3386 18.5346 15.7515 18.3864 16.1069C18.155 16.6606 17.5018 16.9126 16.9595 17.0395" stroke="#A5A2B8" stroke-width="1.5" stroke-linecap="round" stroke-linejoin="round"/>
<path d="M5.24171 10.8717C3.90644 10.8717 2.82324 9.64014 2.82324 8.12089C2.82324 6.60164 3.90644 5.37007 5.24171 5.37007" stroke="#A5A2B8" stroke-width="1.5" stroke-linecap="round" stroke-linejoin="round"/>
<path d="M4.1297 13.8611C3.73095 13.8924 3.3345 13.9567 2.94415 14.0567C2.40179 14.1775 1.74943 14.4304 1.51797 14.984C1.36901 15.3386 1.36901 15.7515 1.51797 16.1069C1.74866 16.6606 2.40179 16.9126 2.94415 17.0395" stroke="#A5A2B8" stroke-width="1.5" stroke-linecap="round" stroke-linejoin="round"/>
<path fill-rule="evenodd" clip-rule="evenodd" d="M9.94789 14.4535C12.6536 14.4535 14.9651 14.9193 14.9651 16.7836C14.9651 18.6471 12.6689 19.1303 9.94789 19.1303C7.24143 19.1303 4.93066 18.6645 4.93066 16.8002C4.93066 14.9359 7.22691 14.4535 9.94789 14.4535Z" stroke="#A5A2B8" stroke-width="1.5" stroke-linecap="round" stroke-linejoin="round"/>
<path fill-rule="evenodd" clip-rule="evenodd" d="M9.94812 11.7943C8.16367 11.7943 6.73291 10.1664 6.73291 8.13523C6.73291 6.10493 8.16367 4.47704 9.94812 4.47704C11.7326 4.47704 13.1633 6.10493 13.1633 8.13523C13.1633 10.1664 11.7326 11.7943 9.94812 11.7943Z" stroke="#A5A2B8" stroke-width="1.5" stroke-linecap="round" stroke-linejoin="round"/>
</svg>
